{
    "asset" : {
        "generator" : "Khronos glTF Blender I/O v1.0.5",
        "version" : "2.0"
    },
    "extensionsUsed" : [
        "KHR_materials_unlit"
    ],
    "extensionsRequired" : [
        "KHR_materials_unlit"
    ],
    "scene" : 0,
    "scenes" : [
        {
            "name" : "Scene",
            "nodes" : [
                0,
                1
            ]
        }
    ],
    "nodes" : [
        {
            "mesh" : 0,
            "name" : "Cube",
            "scale" : [
                0.1975008249282837,
                0.1975008249282837,
                0.1975008249282837
            ],
            "translation" : [
                -1.0254905223846436,
                0.2691335082054138,
                0
            ]
        },
        {
            "name" : "Camera",
            "rotation" : [
                0.7070375084877014,
                0.009872784838080406,
                -0.009873006492853165,
                0.7070382237434387
            ],
            "translation" : [
                0.15466447174549103,
                0.9688711762428284,
                7.107013702392578
            ]
        }
    ],
    "materials" : [
        {
            "doubleSided" : true,
            "extensions" : {
                "KHR_materials_unlit" : {}
            },
            "name" : "Material.003",
            "pbrMetallicRoughness" : {
                "baseColorFactor" : [
                    0,
                    0,
                    0,
                    1
                ]
            }
        },
        {
            "doubleSided" : true,
            "extensions" : {
                "KHR_materials_unlit" : {}
            },
            "name" : "Material.004",
            "pbrMetallicRoughness" : {
                "baseColorFactor" : [
                    0.4292255640029907,
                    0.4292255640029907,
                    0.4292255640029907,
                    1
                ]
            }
        }
    ],
    "meshes" : [
        {
            "name" : "Cube",
            "primitives" : [
                {
                    "attributes" : {
                        "POSITION" : 0,
                        "NORMAL" : 1,
                        "TEXCOORD_0" : 2
                    },
                    "indices" : 3,
                    "material" : 0
                },
                {
                    "attributes" : {
                        "POSITION" : 4,
                        "NORMAL" : 5,
                        "TEXCOORD_0" : 6
                    },
                    "indices" : 7,
                    "material" : 1
                }
            ]
        }
    ],
    "accessors" : [
        {
            "bufferView" : 0,
            "componentType" : 5126,
            "count" : 36,
            "max" : [
                15.074884414672852,
                1.3724184036254883,
                0.455959677696228
            ],
            "min" : [
                12.639972686767578,
                -1.3988451957702637,
                -0.45595991611480713
            ],
            "type" : "VEC3"
        },
        {
            "bufferView" : 1,
            "componentType" : 5126,
            "count" : 36,
            "type" : "VEC3"
        },
        {
            "bufferView" : 2,
            "componentType" : 5126,
            "count" : 36,
            "type" : "VEC2"
        },
        {
            "bufferView" : 3,
            "componentType" : 5123,
            "count" : 54,
            "type" : "SCALAR"
        },
        {
            "bufferView" : 4,
            "componentType" : 5126,
            "count" : 72,
            "max" : [
                17.12289047241211,
                2.095339298248291,
                0.4018845558166504
            ],
            "min" : [
                -5.966966152191162,
                -1.0132131576538086,
                -0.4018845558166504
            ],
            "type" : "VEC3"
        },
        {
            "bufferView" : 5,
            "componentType" : 5126,
            "count" : 72,
            "type" : "VEC3"
        },
        {
            "bufferView" : 6,
            "componentType" : 5126,
            "count" : 72,
            "type" : "VEC2"
        },
        {
            "bufferView" : 7,
            "componentType" : 5123,
            "count" : 114,
            "type" : "SCALAR"
        }
    ],
    "bufferViews" : [
        {
            "buffer" : 0,
            "byteLength" : 432,
            "byteOffset" : 0
        },
        {
            "buffer" : 0,
            "byteLength" : 432,
            "byteOffset" : 432
        },
        {
            "buffer" : 0,
            "byteLength" : 288,
            "byteOffset" : 864
        },
        {
            "buffer" : 0,
            "byteLength" : 108,
            "byteOffset" : 1152
        },
        {
            "buffer" : 0,
            "byteLength" : 864,
            "byteOffset" : 1260
        },
        {
            "buffer" : 0,
            "byteLength" : 864,
            "byteOffset" : 2124
        },
        {
            "buffer" : 0,
            "byteLength" : 576,
            "byteOffset" : 2988
        },
        {
            "buffer" : 0,
            "byteLength" : 228,
            "byteOffset" : 3564
        }
    ],
    "buffers" : [
        {
            "byteLength" : 3792,
            "uri" : "data:application/octet-stream;base64,"
        }
    ]
}
