{
    "asset" : {
        "generator" : "Khronos glTF Blender I/O v0.9.36",
        "version" : "2.0"
    },
    "scene" : 0,
    "scenes" : [
        {
            "name" : "Scene",
            "nodes" : [
                0,
                4
            ]
        }
    ],
    "nodes" : [
        {
            "name" : "Light",
            "rotation" : [
                0.16907575726509094,
                0.7558803558349609,
                -0.27217137813568115,
                0.570947527885437
            ],
            "scale" : [
                0.15625420212745667,
                0.15625418722629547,
                0.15625420212745667
            ],
            "translation" : [
                0.6528860330581665,
                0.951446533203125,
                -0.14538247883319855
            ]
        },
        {
            "mesh" : 0,
            "name" : "Led",
            "translation" : [
                0,
                0,
                0.00684560788795352
            ]
        },
        {
            "mesh" : 1,
            "name" : "Polos",
            "rotation" : [
                0.5,
                -0.49999991059303284,
                -0.5,
                0.5000000596046448
            ],
            "scale" : [
                15.995490074157715,
                15.995490074157715,
                15.995490074157715
            ],
            "translation" : [
                0.08327127248048782,
                0.4641317129135132,
                0.4569477140903473
            ]
        },
        {
            "mesh" : 2,
            "name" : "terminales",
            "translation" : [
                1.7830229997634888,
                -0.16359829902648926,
                0.8229840993881226
            ]
        },
        {
            "children" : [
                1,
                2,
                3
            ],
            "name" : "led.dae",
            "rotation" : [
                0.7071068286895752,
                0,
                0,
                0.7071067094802856
            ],
            "scale" : [
                0.15625420212745667,
                0.15625420212745667,
                0.15625420212745667
            ],
            "translation" : [
                0.01595553755760193,
                0.62651526927948,
                0.011724013835191727
            ]
        }
    ],
    "materials" : [
        {
            "emissiveFactor" : [
                0.9686274528503418,
                0.08627451211214066,
                0.07058823853731155
            ],
            "name" : "Material.002",
            "pbrMetallicRoughness" : {
                "baseColorFactor" : [
                    0.800000011920929,
                    0.0784313753247261,
                    0.10196078568696976,
                    1
                ],
                "metallicFactor" : 0.5,
                "roughnessFactor" : 0.5
            }
        },
        {
            "name" : "Material.001",
            "pbrMetallicRoughness" : {
                "baseColorFactor" : [
                    0.062745101749897,
                    0.05882352963089943,
                    0.07058823853731155,
                    1
                ],
                "metallicFactor" : 0.5,
                "roughnessFactor" : 0.5
            }
        },
        {
            "emissiveFactor" : [
                0.1921568661928177,
                0.1921568661928177,
                0.1921568661928177
            ],
            "name" : "terminales",
            "pbrMetallicRoughness" : {
                "baseColorFactor" : [
                    0.2705882489681244,
                    0.2705882489681244,
                    0.2705882489681244,
                    1
                ],
                "metallicFactor" : 0.5,
                "roughnessFactor" : 0.5
            }
        }
    ],
    "meshes" : [
        {
            "name" : "Mesh_2",
            "primitives" : [
                {
                    "attributes" : {
                        "POSITION" : 0,
                        "NORMAL" : 1,
                        "TEXCOORD_0" : 2
                    },
                    "indices" : 3,
                    "material" : 0
                }
            ]
        },
        {
            "name" : "Mesh_1",
            "primitives" : [
                {
                    "attributes" : {
                        "POSITION" : 4,
                        "NORMAL" : 5
                    },
                    "indices" : 6,
                    "material" : 1
                }
            ]
        },
        {
            "name" : "Mesh_0",
            "primitives" : [
                {
                    "attributes" : {
                        "POSITION" : 7,
                        "NORMAL" : 8,
                        "TEXCOORD_0" : 9
                    },
                    "indices" : 10,
                    "material" : 2
                }
            ]
        }
    ],
    "accessors" : [
        {
            "bufferView" : 0,
            "componentType" : 5126,
            "count" : 1722,
            "max" : [
                1,
                1,
                2.0026559829711914
            ],
            "min" : [
                -0.9999998211860657,
                -1,
                -1
            ],
            "type" : "VEC3"
        },
        {
            "bufferView" : 1,
            "componentType" : 5126,
            "count" : 1722,
            "type" : "VEC3"
        },
        {
            "bufferView" : 2,
            "componentType" : 5126,
            "count" : 1722,
            "type" : "VEC2"
        },
        {
            "bufferView" : 3,
            "componentType" : 5123,
            "count" : 1722,
            "type" : "SCALAR"
        },
        {
            "bufferView" : 4,
            "componentType" : 5126,
            "count" : 108,
            "max" : [
                0.060804061591625214,
                0.08656542748212814,
                0.011587020009756088
            ],
            "min" : [
                0,
                0,
                0
            ],
            "type" : "VEC3"
        },
        {
            "bufferView" : 5,
            "componentType" : 5126,
            "count" : 108,
            "type" : "VEC3"
        },
        {
            "bufferView" : 6,
            "componentType" : 5123,
            "count" : 108,
            "type" : "SCALAR"
        },
        {
            "bufferView" : 7,
            "componentType" : 5126,
            "count" : 744,
            "max" : [
                -1.6743470430374146,
                0.6291251182556152,
                2.745965003967285
            ],
            "min" : [
                -1.8916980028152466,
                -0.3280732035636902,
                1.0161850452423096
            ],
            "type" : "VEC3"
        },
        {
            "bufferView" : 8,
            "componentType" : 5126,
            "count" : 744,
            "type" : "VEC3"
        },
        {
            "bufferView" : 9,
            "componentType" : 5126,
            "count" : 744,
            "type" : "VEC2"
        },
        {
            "bufferView" : 10,
            "componentType" : 5123,
            "count" : 744,
            "type" : "SCALAR"
        }
    ],
    "bufferViews" : [
        {
            "buffer" : 0,
            "byteLength" : 20664,
            "byteOffset" : 0
        },
        {
            "buffer" : 0,
            "byteLength" : 20664,
            "byteOffset" : 20664
        },
        {
            "buffer" : 0,
            "byteLength" : 13776,
            "byteOffset" : 41328
        },
        {
            "buffer" : 0,
            "byteLength" : 3444,
            "byteOffset" : 55104
        },
        {
            "buffer" : 0,
            "byteLength" : 1296,
            "byteOffset" : 58548
        },
        {
            "buffer" : 0,
            "byteLength" : 1296,
            "byteOffset" : 59844
        },
        {
            "buffer" : 0,
            "byteLength" : 216,
            "byteOffset" : 61140
        },
        {
            "buffer" : 0,
            "byteLength" : 8928,
            "byteOffset" : 61356
        },
        {
            "buffer" : 0,
            "byteLength" : 8928,
            "byteOffset" : 70284
        },
        {
            "buffer" : 0,
            "byteLength" : 5952,
            "byteOffset" : 79212
        },
        {
            "buffer" : 0,
            "byteLength" : 1488,
            "byteOffset" : 85164
        }
    ],
    "buffers" : [
        {
            "byteLength" : 86652,
            "uri" : "data:application/octet-stream;base64,"
        }
    ]
}
