{
  "asset": {
    "version": "2.0",
    "generator": "THREE.GLTFExporter"
  },
  "scenes": [
    {
      "nodes": [
        4
      ],
      "name": "Scene"
    }
  ],
  "scene": 0,
  "nodes": [
    {
      "matrix": [
        1,
        0,
        0,
        0,
        0,
        1,
        0,
        0,
        0,
        0,
        1,
        0,
        0,
        0,
        0.00684560788795352,
        1
      ],
      "name": "Led",
      "extras": {
        "name": "Led"
      },
      "mesh": 0
    },
    {
      "matrix": [
        0.000002860216255912088,
        -15.995489597454963,
        -4.767029224214178e-7,
        0,
        0.000002383513759696143,
        0,
        15.995489597454963,
        0,
        -15.995489597454792,
        -0.000002383513759696143,
        0.000002860216255912088,
        0,
        0.08327127248048782,
        0.4641317129135132,
        0.4569477140903473,
        1
      ],
      "name": "Polos",
      "extras": {
        "name": "Polos"
      },
      "mesh": 1
    },
    {
      "matrix": [
        1,
        0,
        0,
        0,
        0,
        1,
        0,
        0,
        0,
        0,
        1,
        0,
        1.7830229997634888,
        -0.16359829902648926,
        0.8229840993881226,
        1
      ],
      "name": "terminales",
      "extras": {
        "name": "terminales"
      },
      "mesh": 2
    },
    {
      "matrix": [
        0.15625420212745667,
        0,
        0,
        0,
        0,
        -2.0994135918829044e-8,
        0.15625419677910207,
        0,
        0,
        -0.15625419677910207,
        -2.0994135918829044e-8,
        0,
        0.01595553755760193,
        0.62651526927948,
        0.011724013835191727,
        1
      ],
      "name": "leddae",
      "extras": {
        "name": "led.dae"
      },
      "children": [
        0,
        1,
        2
      ]
    },
    {
      "name": "ledverde.gltf",
      "children": [
        3
      ]
    }
  ],
  "bufferViews": [
    {
      "buffer": 0,
      "byteOffset": 0,
      "byteLength": 20664,
      "target": 34962,
      "byteStride": 12
    },
    {
      "buffer": 0,
      "byteOffset": 20664,
      "byteLength": 20664,
      "target": 34962,
      "byteStride": 12
    },
    {
      "buffer": 0,
      "byteOffset": 41328,
      "byteLength": 13776,
      "target": 34962,
      "byteStride": 8
    },
    {
      "buffer": 0,
      "byteOffset": 55104,
      "byteLength": 3444,
      "target": 34963
    },
    {
      "buffer": 0,
      "byteOffset": 58548,
      "byteLength": 1296,
      "target": 34962,
      "byteStride": 12
    },
    {
      "buffer": 0,
      "byteOffset": 59844,
      "byteLength": 1296,
      "target": 34962,
      "byteStride": 12
    },
    {
      "buffer": 0,
      "byteOffset": 61140,
      "byteLength": 216,
      "target": 34963
    },
    {
      "buffer": 0,
      "byteOffset": 61356,
      "byteLength": 8928,
      "target": 34962,
      "byteStride": 12
    },
    {
      "buffer": 0,
      "byteOffset": 70284,
      "byteLength": 8928,
      "target": 34962,
      "byteStride": 12
    },
    {
      "buffer": 0,
      "byteOffset": 79212,
      "byteLength": 5952,
      "target": 34962,
      "byteStride": 8
    },
    {
      "buffer": 0,
      "byteOffset": 85164,
      "byteLength": 1488,
      "target": 34963
    }
  ],
  "buffers": [
    {
      "byteLength": 86652,
      "uri": "data:application/octet-stream;base64,"
    }
  ],
  "accessors": [
    {
      "bufferView": 0,
      "componentType": 5126,
      "count": 1722,
      "max": [
        1,
        1,
        2.0026559829711914
      ],
      "min": [
        -0.9999998211860657,
        -1,
        -1
      ],
      "type": "VEC3"
    },
    {
      "bufferView": 1,
      "componentType": 5126,
      "count": 1722,
      "max": [
        0.9951848983764648,
        0.9951848983764648,
        1
      ],
      "min": [
        -0.9951848387718201,
        -0.9951847791671753,
        -0.9951385855674744
      ],
      "type": "VEC3"
    },
    {
      "bufferView": 2,
      "componentType": 5126,
      "count": 1722,
      "max": [
        1,
        1
      ],
      "min": [
        0,
        0.5
      ],
      "type": "VEC2"
    },
    {
      "bufferView": 3,
      "componentType": 5123,
      "count": 1722,
      "max": [
        1721
      ],
      "min": [
        0
      ],
      "type": "SCALAR"
    },
    {
      "bufferView": 4,
      "componentType": 5126,
      "count": 108,
      "max": [
        0.060804061591625214,
        0.08656542748212814,
        0.011587020009756088
      ],
      "min": [
        0,
        0,
        0
      ],
      "type": "VEC3"
    },
    {
      "bufferView": 5,
      "componentType": 5126,
      "count": 108,
      "max": [
        1,
        1,
        1
      ],
      "min": [
        -1,
        -1,
        -1
      ],
      "type": "VEC3"
    },
    {
      "bufferView": 6,
      "componentType": 5123,
      "count": 108,
      "max": [
        107
      ],
      "min": [
        0
      ],
      "type": "SCALAR"
    },
    {
      "bufferView": 7,
      "componentType": 5126,
      "count": 744,
      "max": [
        -1.6743470430374146,
        0.6291251182556152,
        2.745965003967285
      ],
      "min": [
        -1.8916980028152466,
        -0.3280732035636902,
        1.0161850452423096
      ],
      "type": "VEC3"
    },
    {
      "bufferView": 8,
      "componentType": 5126,
      "count": 744,
      "max": [
        0.9951858520507812,
        0.9951849579811096,
        1
      ],
      "min": [
        -0.9951857924461365,
        -0.995185136795044,
        -1
      ],
      "type": "VEC3"
    },
    {
      "bufferView": 9,
      "componentType": 5126,
      "count": 744,
      "max": [
        1,
        1
      ],
      "min": [
        0,
        0.009999990463256836
      ],
      "type": "VEC2"
    },
    {
      "bufferView": 10,
      "componentType": 5123,
      "count": 744,
      "max": [
        743
      ],
      "min": [
        0
      ],
      "type": "SCALAR"
    }
  ],
  "materials": [
    {
      "pbrMetallicRoughness": {
        "metallicFactor": 1,
        "roughnessFactor": 1
      },
      "emissiveFactor": [
        0.19607843137254902,
        1,
        0
      ],
      "alphaMode": "BLEND",
      "name": "Material.002"
    },
    {
      "pbrMetallicRoughness": {
        "baseColorFactor": [
          0,
          0,
          0,
          1
        ],
        "metallicFactor": 0.5,
        "roughnessFactor": 0.5
      },
      "name": "Material.001"
    },
    {
      "pbrMetallicRoughness": {
        "baseColorFactor": [
          0.2705882489681244,
          0.2705882489681244,
          0.2705882489681244,
          1
        ],
        "metallicFactor": 0.5,
        "roughnessFactor": 0.5
      },
      "emissiveFactor": [
        0.1921568661928177,
        0.1921568661928177,
        0.1921568661928177
      ],
      "name": "terminales"
    }
  ],
  "meshes": [
    {
      "primitives": [
        {
          "mode": 4,
          "attributes": {
            "POSITION": 0,
            "NORMAL": 1,
            "TEXCOORD_0": 2
          },
          "indices": 3,
          "material": 0
        }
      ]
    },
    {
      "primitives": [
        {
          "mode": 4,
          "attributes": {
            "POSITION": 4,
            "NORMAL": 5
          },
          "indices": 6,
          "material": 1
        }
      ]
    },
    {
      "primitives": [
        {
          "mode": 4,
          "attributes": {
            "POSITION": 7,
            "NORMAL": 8,
            "TEXCOORD_0": 9
          },
          "indices": 10,
          "material": 2
        }
      ]
    }
  ]
}